<svg width="26" height="19" viewBox="0 0 26 19" fill="none" xmlns="http://www.w3.org/2000/svg">
<path d="M0 0H26V19H0V0Z" fill="#DE2910"/>
<path d="M4.6 10.5L7 2.9L9.4 10.5L3 5.85556H11L4.6 10.5Z" fill="#FFDE00"/>
<path d="M13.3207 2.63655L11.0537 3.12603L12.5659 1.40914L12.4176 3.71986L11.1595 1.67417L13.3207 2.63655Z" fill="#FFDE00"/>
<path d="M14.9655 5.04416L12.7636 4.65329L14.7658 3.6787L13.7475 5.67767L13.4147 3.40191L14.9655 5.04416Z" fill="#FFDE00"/>
<path d="M15.0105 9.04407L12.609 7.44217L15.5166 7.31971L13.2196 9.1668L14.0631 6.29287L15.0105 9.04407Z" fill="#FFDE00"/>
<path d="M12.1966 12.1497L10.8294 10.0893L13.1919 10.9383L10.7252 11.6645L12.384 9.64552L12.1966 12.1497Z" fill="#FFDE00"/>
</svg>
