<svg width="22" height="22" viewBox="0 0 22 22" fill="none" xmlns="http://www.w3.org/2000/svg">
<path d="M14.2 11C14.2 11.6329 14.0123 12.2516 13.6607 12.7778C13.3091 13.3041 12.8093 13.7142 12.2246 13.9564C11.6399 14.1986 10.9965 14.262 10.3757 14.1385C9.75497 14.015 9.18479 13.7103 8.73726 13.2627C8.28973 12.8152 7.98496 12.245 7.86149 11.6243C7.73801 11.0035 7.80138 10.3601 8.04359 9.77541C8.28579 9.19069 8.69594 8.69092 9.22218 8.3393C9.74841 7.98768 10.3671 7.8 11 7.8C11.8484 7.80098 12.6618 8.13844 13.2617 8.73834C13.8616 9.33824 14.199 10.1516 14.2 11ZM21 6.6V15.4C20.9983 16.8847 20.4078 18.3081 19.3579 19.3579C18.3081 20.4078 16.8847 20.9983 15.4 21H6.6C5.11531 20.9983 3.69191 20.4078 2.64207 19.3579C1.59224 18.3081 1.00169 16.8847 1 15.4V6.6C1.00169 5.11531 1.59224 3.69191 2.64207 2.64207C3.69191 1.59224 5.11531 1.00169 6.6 1H15.4C16.8847 1.00169 18.3081 1.59224 19.3579 2.64207C20.4078 3.69191 20.9983 5.11531 21 6.6ZM15.8 11C15.8 10.0506 15.5185 9.12262 14.9911 8.33326C14.4636 7.54391 13.714 6.92868 12.8369 6.56538C11.9598 6.20208 10.9947 6.10702 10.0636 6.29223C9.13246 6.47744 8.27718 6.9346 7.60589 7.60589C6.9346 8.27718 6.47744 9.13246 6.29223 10.0636C6.10702 10.9947 6.20208 11.9598 6.56538 12.8369C6.92868 13.714 7.54391 14.4636 8.33326 14.9911C9.12262 15.5185 10.0506 15.8 11 15.8C12.2726 15.7986 13.4927 15.2924 14.3925 14.3925C15.2924 13.4927 15.7986 12.2726 15.8 11ZM17.4 5.8C17.4 5.56266 17.3296 5.33066 17.1978 5.13332C17.0659 4.93598 16.8785 4.78217 16.6592 4.69134C16.4399 4.60052 16.1987 4.57676 15.9659 4.62306C15.7331 4.66936 15.5193 4.78365 15.3515 4.95147C15.1837 5.11929 15.0694 5.33311 15.0231 5.56589C14.9768 5.79867 15.0005 6.03995 15.0913 6.25922C15.1822 6.47849 15.336 6.66591 15.5333 6.79776C15.7307 6.92962 15.9627 7 16.2 7C16.5183 7 16.8235 6.87357 17.0485 6.64853C17.2736 6.42348 17.4 6.11826 17.4 5.8Z" fill="#1B1919"/>
</svg>
