<svg width="19" height="13" viewBox="0 0 19 13" fill="none" xmlns="http://www.w3.org/2000/svg">
<path d="M3.59195 8.49175C3.16862 9.51131 2.50156 10.5186 1.60997 11.4891C1.32775 11.7962 1.28926 12.2384 1.52017 12.5823C1.69979 12.8526 1.99482 13 2.31553 13C2.40533 13 2.49514 12.9939 2.58495 12.9631C4.47069 12.4349 8.8773 10.5616 8.99917 4.55467C9.04403 2.23914 7.27374 0.24912 4.97102 0.0218642C3.6946 -0.100983 2.42459 0.298226 1.48168 1.10898C0.538813 1.92589 0 3.09289 0 4.30901C0 6.33588 1.50095 8.11095 3.59195 8.49175Z" fill="#D31919"/>
<path d="M14.9651 0.0218642C13.6949 -0.100983 12.4248 0.298226 11.4819 1.10898C10.5389 1.92589 10 3.09289 10 4.30901C10 6.33588 11.5011 8.11094 13.5923 8.49175C13.1689 9.51132 12.5018 10.5186 11.6101 11.4891C11.3279 11.7962 11.2894 12.2384 11.5203 12.5823C11.6999 12.8526 11.995 13 12.3158 13C12.4056 13 12.4954 12.9939 12.5852 12.9631C14.4711 12.4349 18.8781 10.5616 19 4.55467V4.46871C19 2.18999 17.2488 0.24912 14.9651 0.0218642Z" fill="#D31919"/>
</svg>
