<svg width="22" height="22" viewBox="0 0 22 22" fill="none" xmlns="http://www.w3.org/2000/svg">
<path d="M3.8027 17.8035C1.4938 16.1447 0 13.64 0 10.8988C0 5.8553 4.9225 1.76 11 1.76C17.0775 1.76 22 5.8553 22 10.8988C22 15.9412 17.0775 20.0365 11 20.0365C9.78196 20.0438 8.56941 19.8729 7.4008 19.5294C7.2996 19.4964 7.1632 19.4964 7.062 19.4964C6.8585 19.4964 6.655 19.5624 6.4845 19.6647L4.0744 21.0518C4.01253 21.0895 3.94298 21.1128 3.8709 21.12C3.77226 21.1194 3.6778 21.0801 3.60785 21.0106C3.53789 20.9411 3.49805 20.8468 3.4969 20.7482C3.4969 20.6459 3.5299 20.5788 3.5651 20.4765C3.5981 20.4435 3.9039 19.3259 4.0744 18.6494C4.0744 18.5812 4.1074 18.48 4.1074 18.4118C4.1074 18.1412 4.0062 17.9388 3.8027 17.8035ZM7.3337 9.3621C8.1224 9.3621 8.7472 8.7373 8.7472 7.9486C8.7472 7.1588 8.1224 6.534 7.3337 6.534C6.5439 6.534 5.9202 7.1588 5.9202 7.9486C5.9202 8.7373 6.5439 9.3621 7.3337 9.3621ZM14.6663 9.3621C15.4561 9.3621 16.0798 8.7373 16.0798 7.9486C16.0798 7.1588 15.4561 6.534 14.6663 6.534C13.8776 6.534 13.2528 7.1588 13.2528 7.9486C13.2528 8.7373 13.8776 9.3621 14.6663 9.3621Z" fill="#1B1919"/>
</svg>
