<svg width="22" height="22" viewBox="0 0 22 22" fill="none" xmlns="http://www.w3.org/2000/svg">
<path d="M3.8027 17.8033C1.4938 16.1445 0 13.6398 0 10.8986C0 5.85507 4.9225 1.75977 11 1.75977C17.0775 1.75977 22 5.85507 22 10.8986C22 15.941 17.0775 20.0363 11 20.0363C9.78196 20.0436 8.56941 19.8727 7.4008 19.5292C7.2996 19.4962 7.1632 19.4962 7.062 19.4962C6.8585 19.4962 6.655 19.5622 6.4845 19.6645L4.0744 21.0516C4.01253 21.0892 3.94298 21.1125 3.8709 21.1198C3.77226 21.1192 3.6778 21.0799 3.60785 21.0104C3.53789 20.9408 3.49805 20.8466 3.4969 20.748C3.4969 20.6457 3.5299 20.5786 3.5651 20.4763C3.5981 20.4433 3.9039 19.3257 4.0744 18.6492C4.0744 18.581 4.1074 18.4798 4.1074 18.4116C4.1074 18.141 4.0062 17.9386 3.8027 17.8033ZM7.3337 9.36187C8.1224 9.36187 8.7472 8.73707 8.7472 7.94837C8.7472 7.15857 8.1224 6.53377 7.3337 6.53377C6.5439 6.53377 5.9202 7.15857 5.9202 7.94837C5.9202 8.73707 6.5439 9.36187 7.3337 9.36187ZM14.6663 9.36187C15.4561 9.36187 16.0798 8.73707 16.0798 7.94837C16.0798 7.15857 15.4561 6.53377 14.6663 6.53377C13.8776 6.53377 13.2528 7.15857 13.2528 7.94837C13.2528 8.73707 13.8776 9.36187 14.6663 9.36187Z" fill="white"/>
</svg>
