<svg width="22" height="22" viewBox="0 0 22 22" fill="none" xmlns="http://www.w3.org/2000/svg">
<path d="M19.5043 5.62488C16.5125 0.999847 10.4044 -0.375163 5.6674 2.49986C1.05511 5.37488 -0.440763 11.6249 2.55099 16.25L2.80031 16.625L1.80305 20.375L5.54275 19.375L5.91672 19.625C7.53725 20.5 9.28244 21 11.0276 21C12.8975 21 14.7673 20.5 16.3879 19.5C21.0002 16.5 22.3714 10.3749 19.5043 5.62488ZM16.8865 15.25C16.3879 16 15.7646 16.5 14.892 16.625C14.3934 16.625 13.7701 16.875 11.2769 15.875C9.15779 14.875 7.4126 13.2499 6.16603 11.3749C5.41809 10.4999 5.04412 9.37491 4.91947 8.2499C4.91947 7.2499 5.29344 6.37489 5.91672 5.74988C6.16603 5.49988 6.41534 5.37488 6.66466 5.37488H7.28794C7.53725 5.37488 7.78656 5.37488 7.91122 5.87488C8.16053 6.49989 8.78382 7.9999 8.78382 8.1249C8.90847 8.2499 8.90847 8.49991 8.78382 8.62491C8.90847 8.87491 8.78382 9.12491 8.65916 9.24991C8.5345 9.37491 8.40985 9.62491 8.28519 9.74991C8.03588 9.87492 7.91122 10.1249 8.03588 10.3749C8.5345 11.1249 9.15779 11.8749 9.78107 12.4999C10.529 13.1249 11.2769 13.6249 12.1495 13.9999C12.3989 14.1249 12.6482 14.1249 12.7728 13.8749C12.8975 13.6249 13.5208 12.9999 13.7701 12.7499C14.0194 12.4999 14.144 12.4999 14.3934 12.6249L16.3879 13.6249C16.6372 13.7499 16.8865 13.8749 17.0111 13.9999C17.1358 14.3749 17.1358 14.875 16.8865 15.25Z" fill="white"/>
</svg>
